<?xml version="1.0" encoding="UTF-8" standalone="no" ?>
<!DOCTYPE svg PUBLIC "-//W3C//DTD SVG 1.1//EN" "http://www.w3.org/Graphics/SVG/1.1/DTD/svg11.dtd">
<svg xmlns="http://www.w3.org/2000/svg" xmlns:xlink="http://www.w3.org/1999/xlink" version="1.1" width="400" height="200" viewBox="0 0 400 200" xml:space="preserve">
<desc>Created with Fabric.js 5.2.4</desc>
<defs>
</defs>
<rect x="0" y="0" width="100%" height="100%" fill="transparent"></rect>
<g transform="matrix(1 0 0 1 200 100)" id="c399458a-a898-495f-b58a-5fd6811bdf5d"  >
<rect style="stroke: none; stroke-width: 1; stroke-dasharray: none; stroke-linecap: butt; stroke-dashoffset: 0; stroke-linejoin: miter; stroke-miterlimit: 4; fill: rgb(255,255,255); fill-rule: nonzero; opacity: 1; visibility: hidden;" vector-effect="non-scaling-stroke"  x="-200" y="-100" rx="0" ry="0" width="400" height="200" />
</g>
<g transform="matrix(Infinity NaN NaN Infinity 0 0)" id="8a479a4d-4bad-4f35-84cf-3e5fb366d8b7"  >
</g>
<g transform="matrix(1.47 0 0 1.47 200 100)"  >
<g style="" vector-effect="non-scaling-stroke"   >
		<g transform="matrix(0.1 0 0 0.1 0 0)"  >
<path style="stroke: none; stroke-width: 1; stroke-dasharray: none; stroke-linecap: butt; stroke-dashoffset: 0; stroke-linejoin: miter; stroke-miterlimit: 4; fill: rgb(48,84,114); fill-rule: nonzero; opacity: 1;" vector-effect="non-scaling-stroke"  transform=" translate(-1500, -767.88)" d="M 2837.339844 767.878906 C 2837.339844 905.578125 2789.28125 1031.96875 2709.03125 1131.121094 C 2696.128906 1147.019531 2682.390625 1162.320312 2667.960938 1176.78125 C 2651.699219 1193.039062 2634.359375 1208.460938 2616.269531 1222.679688 C 2613.03125 1225.199219 2609.878906 1227.75 2606.640625 1230.03125 C 2527.589844 1289.671875 2432.789062 1329.421875 2329.53125 1341.839844 C 2306.398438 1344.71875 2282.910156 1346.191406 2259.058594 1346.191406 L 740.96875 1346.191406 C 562.171875 1346.191406 402.300781 1264.980469 296.28125 1137.511719 C 280.621094 1118.730469 266.039062 1098.960938 252.898438 1078.109375 C 195.660156 988.589844 162.660156 882.089844 162.660156 767.878906 C 162.660156 448.5 421.558594 189.570312 740.96875 189.570312 L 2259.03125 189.570312 C 2495.28125 189.570312 2698.410156 331.261719 2788.171875 534.269531 C 2819.730469 605.699219 2837.339844 684.75 2837.339844 767.878906" stroke-linecap="round" />
</g>
		<g transform="matrix(0.1 0 0 0.1 0.26 10)"  >
<path style="stroke: none; stroke-width: 1; stroke-dasharray: none; stroke-linecap: butt; stroke-dashoffset: 0; stroke-linejoin: miter; stroke-miterlimit: 4; fill: rgb(79,124,165); fill-rule: nonzero; opacity: 1;" vector-effect="non-scaling-stroke"  transform=" translate(-1502.64, -867.92)" d="M 574.46875 389.671875 L 574.46875 502.800781 L 296.28125 502.800781 L 296.28125 1137.480469 C 402.300781 1264.949219 562.171875 1346.160156 740.96875 1346.160156 L 851.578125 1346.160156 L 851.578125 389.671875 Z M 1182.898438 569.070312 L 1182.898438 617.25 L 1026.269531 617.25 L 1026.269531 1346.160156 L 1460.011719 1346.160156 L 1460.011719 569.070312 Z M 1851.570312 569.070312 L 1851.570312 421.46875 L 1574.460938 421.46875 L 1574.460938 1222.679688 L 1841.070312 1222.679688 L 1841.070312 1346.160156 L 2118.179688 1346.160156 L 2118.179688 569.070312 Z M 2431.921875 421.5 L 2431.921875 713.671875 L 2329.5 713.671875 L 2329.5 1341.839844 C 2432.761719 1329.421875 2527.558594 1289.671875 2606.609375 1230.03125 L 2606.609375 1222.679688 L 2616.238281 1222.679688 C 2634.300781 1208.460938 2651.671875 1193.039062 2667.929688 1176.78125 C 2682.390625 1162.320312 2696.128906 1147.019531 2709 1131.121094 L 2709 421.5 L 2431.921875 421.5" stroke-linecap="round" />
</g>
		<g transform="matrix(0.1 0 0 0.1 2.95 10.01)"  >
<path style="stroke: none; stroke-width: 1; stroke-dasharray: none; stroke-linecap: butt; stroke-dashoffset: 0; stroke-linejoin: miter; stroke-miterlimit: 4; fill: rgb(22,40,63); fill-rule: nonzero; opacity: 1;" vector-effect="non-scaling-stroke"  transform=" translate(-1529.46, -867.93)" d="M 2837.339844 767.878906 C 2837.339844 905.578125 2789.28125 1031.96875 2709.03125 1131.121094 C 2696.128906 1147.019531 2682.390625 1162.320312 2667.960938 1176.78125 C 2651.699219 1193.039062 2634.359375 1208.460938 2616.269531 1222.679688 C 2613.03125 1225.199219 2609.878906 1227.75 2606.640625 1230.03125 C 2527.589844 1289.671875 2432.789062 1329.421875 2329.53125 1341.839844 C 2306.398438 1344.71875 2282.910156 1346.191406 2259.058594 1346.191406 L 740.96875 1346.191406 C 562.171875 1346.191406 402.300781 1264.980469 296.28125 1137.511719 C 280.621094 1118.730469 266.039062 1098.960938 252.898438 1078.109375 L 255.179688 1078.109375 L 255.179688 993.78125 L 221.578125 993.78125 L 221.578125 921.480469 L 255.179688 921.480469 L 255.179688 892.441406 L 221.578125 892.441406 L 221.578125 820.140625 L 255.179688 820.140625 L 255.179688 790.980469 L 221.578125 790.980469 L 221.578125 718.679688 L 574.46875 718.679688 L 574.46875 921.449219 L 640.738281 921.449219 L 640.738281 570.390625 L 619.171875 570.390625 L 619.171875 498.089844 L 1016.761719 498.089844 L 1016.761719 570.390625 L 996.148438 570.390625 L 996.148438 851.21875 L 1085.550781 851.21875 L 1085.550781 783.988281 L 1338.570312 783.988281 L 1338.570312 856.289062 L 1338.449219 856.289062 C 1338.449219 856.53125 1338.570312 856.648438 1338.570312 857.011719 L 1338.570312 1112.308594 L 1401.328125 1112.308594 L 1401.328125 545.699219 L 1714.589844 545.699219 L 1714.589844 637.378906 L 1895.671875 637.378906 C 1898.789062 637.378906 1901.339844 639.898438 1901.339844 643.171875 L 1901.339844 921.480469 L 1967.609375 921.480469 L 1976.640625 451.109375 C 1976.640625 439.589844 2028.808594 415.199219 2028.808594 415.199219 L 2028.808594 389.671875 L 2342.070312 389.671875 L 2342.070312 415.199219 L 2383.648438 415.199219 C 2386.769531 415.199219 2389.320312 417.71875 2389.320312 420.988281 L 2389.320312 1032.058594 L 2468.101562 1032.058594 L 2468.101562 540.03125 C 2468.101562 536.910156 2470.621094 534.238281 2473.890625 534.238281 L 2788.230469 534.238281 C 2819.730469 605.699219 2837.339844 684.75 2837.339844 767.878906" stroke-linecap="round" />
</g>
		<g transform="matrix(0.1 0 0 0.1 -45.67 -0.83)"  >
<path style="stroke: none; stroke-width: 1; stroke-dasharray: none; stroke-linecap: butt; stroke-dashoffset: 0; stroke-linejoin: miter; stroke-miterlimit: 4; fill: rgb(48,84,114); fill-rule: nonzero; opacity: 1;" vector-effect="non-scaling-stroke"  transform=" translate(-1043.34, -759.54)" d="M 1806.328125 805.46875 L 1752.121094 805.46875 L 1752.121094 751.261719 L 1806.328125 751.261719 Z M 1308.570312 859.679688 L 1254.359375 859.679688 L 1254.359375 805.46875 L 1308.570312 805.46875 Z M 984.421875 623.28125 L 930.210938 623.28125 L 930.210938 569.070312 L 984.421875 569.070312 Z M 914.820312 623.28125 L 860.609375 623.28125 L 860.609375 569.070312 L 914.820312 569.070312 Z M 710.128906 727.171875 L 655.921875 727.171875 L 655.921875 672.960938 L 710.128906 672.960938 Z M 557.460938 787.410156 L 503.25 787.410156 L 503.25 733.199219 L 557.460938 733.199219 Z M 334.558594 880.769531 L 280.351562 880.769531 L 280.351562 826.558594 L 334.558594 826.558594 Z M 400.828125 880.769531 L 346.621094 880.769531 L 346.621094 826.558594 L 400.828125 826.558594 Z M 485.160156 950.039062 L 430.949219 950.039062 L 430.949219 895.828125 L 485.160156 895.828125 Z M 1685.070312 623.25 L 1630.859375 623.25 L 1630.859375 569.039062 L 1685.070312 569.039062 Z M 1487.101562 722.730469 L 1432.890625 722.730469 L 1432.890625 668.519531 L 1487.101562 668.519531 Z M 1487.101562 794.96875 L 1432.890625 794.96875 L 1432.890625 740.761719 L 1487.101562 740.761719 L 1487.101562 794.96875" stroke-linecap="round" />
</g>
		<g transform="matrix(0.1 0 0 0.1 10.92 -4.45)"  >
<path style="stroke: none; stroke-width: 1; stroke-dasharray: none; stroke-linecap: butt; stroke-dashoffset: 0; stroke-linejoin: miter; stroke-miterlimit: 4; fill: rgb(239,239,239); fill-rule: nonzero; opacity: 1;" vector-effect="non-scaling-stroke"  transform=" translate(-1609.23, -723.4)" d="M 1006.140625 236.339844 L 1020.75 238.53125 L 1006.140625 240.71875 C 999.988281 241.648438 995.160156 246.480469 994.230469 252.628906 L 992.039062 267.238281 L 989.851562 252.628906 C 988.921875 246.480469 984.089844 241.648438 977.941406 240.71875 L 963.328125 238.53125 L 977.941406 236.339844 C 984.089844 235.410156 988.921875 230.578125 989.851562 224.429688 L 992.039062 209.820312 L 994.230469 224.429688 C 995.160156 230.578125 999.988281 235.410156 1006.140625 236.339844 Z M 1099.289062 497.550781 C 1093.140625 496.621094 1088.308594 491.789062 1087.378906 485.640625 L 1085.191406 471.03125 L 1083 485.640625 C 1082.070312 491.789062 1077.238281 496.621094 1071.089844 497.550781 L 1056.480469 499.738281 L 1071.089844 501.929688 C 1077.238281 502.859375 1082.070312 507.691406 1083 513.839844 L 1085.191406 528.449219 L 1087.378906 513.839844 C 1088.308594 507.691406 1093.140625 502.859375 1099.289062 501.929688 L 1113.898438 499.738281 Z M 1462.140625 375.628906 L 1459.949219 361.019531 L 1457.761719 375.628906 C 1456.828125 381.78125 1452 386.609375 1445.851562 387.539062 L 1431.238281 389.730469 L 1445.851562 391.921875 C 1452 392.851562 1456.828125 397.679688 1457.761719 403.828125 L 1459.949219 418.441406 L 1462.140625 403.828125 C 1463.070312 397.679688 1467.898438 392.851562 1474.050781 391.921875 L 1488.660156 389.730469 L 1474.050781 387.539062 C 1467.898438 386.609375 1463.070312 381.78125 1462.140625 375.628906 Z M 2295.75 298.648438 C 2036.640625 298.648438 1826.578125 508.710938 1826.578125 767.820312 C 1826.578125 1026.929688 2036.640625 1236.988281 2295.75 1236.988281 C 2554.859375 1236.988281 2764.921875 1026.929688 2764.921875 767.820312 C 2764.921875 508.710938 2554.859375 298.648438 2295.75 298.648438 Z M 1724.550781 271.289062 C 1725.480469 265.140625 1730.308594 260.308594 1736.460938 259.378906 L 1751.070312 257.191406 L 1736.460938 255 C 1730.308594 254.070312 1725.480469 249.238281 1724.550781 243.089844 L 1722.359375 228.480469 L 1720.171875 243.089844 C 1719.238281 249.238281 1714.410156 254.070312 1708.261719 255 L 1693.648438 257.191406 L 1708.261719 259.378906 C 1714.410156 260.308594 1719.238281 265.140625 1720.171875 271.289062 L 1722.359375 285.898438 Z M 1199.070312 350.28125 L 1196.878906 335.671875 L 1194.691406 350.28125 C 1193.761719 356.429688 1188.929688 361.261719 1182.78125 362.191406 L 1168.171875 364.378906 L 1182.78125 366.570312 C 1188.929688 367.5 1193.761719 372.328125 1194.691406 378.480469 L 1196.878906 393.089844 L 1199.070312 378.480469 C 1200 372.328125 1204.828125 367.5 1210.980469 366.570312 L 1225.589844 364.378906 L 1210.980469 362.191406 C 1204.800781 361.261719 1199.96875 356.429688 1199.070312 350.28125 Z M 1917.570312 403.828125 L 1919.761719 418.441406 L 1921.949219 403.828125 C 1922.878906 397.679688 1927.710938 392.851562 1933.859375 391.921875 L 1948.46875 389.730469 L 1933.859375 387.539062 C 1927.710938 386.609375 1922.878906 381.78125 1921.949219 375.628906 L 1919.761719 361.019531 L 1917.570312 375.628906 C 1916.640625 381.78125 1911.808594 386.609375 1905.660156 387.539062 L 1891.050781 389.730469 L 1905.660156 391.921875 C 1911.808594 392.851562 1916.640625 397.679688 1917.570312 403.828125 Z M 494.519531 339 L 508.5 336.898438 L 494.519531 334.800781 C 488.640625 333.929688 484.019531 329.308594 483.121094 323.398438 L 481.019531 309.421875 L 478.921875 323.398438 C 478.050781 329.28125 473.429688 333.898438 467.519531 334.800781 L 453.539062 336.898438 L 467.519531 339 C 473.398438 339.871094 478.019531 344.488281 478.921875 350.398438 L 481.019531 364.378906 L 483.121094 350.398438 C 484.019531 344.488281 488.640625 339.871094 494.519531 339" stroke-linecap="round" />
</g>
		<g transform="matrix(0.1 0 0 0.1 74.41 -11.63)"  >
<path style="stroke: none; stroke-width: 1; stroke-dasharray: none; stroke-linecap: butt; stroke-dashoffset: 0; stroke-linejoin: miter; stroke-miterlimit: 4; fill: rgb(226,221,221); fill-rule: nonzero; opacity: 1;" vector-effect="non-scaling-stroke"  transform=" translate(-2244.06, -651.54)" d="M 2005.109375 507.421875 C 2005.109375 473.398438 2032.679688 445.828125 2066.699219 445.828125 C 2100.71875 445.828125 2128.289062 473.398438 2128.289062 507.421875 C 2128.289062 541.441406 2100.71875 569.011719 2066.699219 569.011719 C 2032.679688 569.011719 2005.109375 541.441406 2005.109375 507.421875 Z M 2009.128906 857.25 C 2058.480469 857.25 2098.5 817.230469 2098.5 767.878906 C 2098.5 718.53125 2058.480469 678.511719 2009.128906 678.511719 C 1959.78125 678.511719 1919.761719 718.53125 1919.761719 767.878906 C 1919.761719 817.230469 1959.75 857.25 2009.128906 857.25 Z M 2499.121094 837.089844 C 2537.371094 837.089844 2568.359375 806.101562 2568.359375 767.851562 C 2568.359375 729.601562 2537.371094 698.609375 2499.121094 698.609375 C 2460.871094 698.609375 2429.878906 729.601562 2429.878906 767.851562 C 2429.878906 806.101562 2460.898438 837.089844 2499.121094 837.089844" stroke-linecap="round" />
</g>
</g>
</g>
</svg>