<?xml version="1.0" encoding="UTF-8" standalone="no" ?>
<!DOCTYPE svg PUBLIC "-//W3C//DTD SVG 1.1//EN" "http://www.w3.org/Graphics/SVG/1.1/DTD/svg11.dtd">
<svg xmlns="http://www.w3.org/2000/svg" xmlns:xlink="http://www.w3.org/1999/xlink" version="1.1" width="400" height="200" viewBox="0 0 400 200" xml:space="preserve">
<desc>Created with Fabric.js 5.2.4</desc>
<defs>
</defs>
<rect x="0" y="0" width="100%" height="100%" fill="transparent"></rect>
<g transform="matrix(1 0 0 1 200 100)" id="c399458a-a898-495f-b58a-5fd6811bdf5d"  >
<rect style="stroke: none; stroke-width: 1; stroke-dasharray: none; stroke-linecap: butt; stroke-dashoffset: 0; stroke-linejoin: miter; stroke-miterlimit: 4; fill: rgb(255,255,255); fill-rule: nonzero; opacity: 1; visibility: hidden;" vector-effect="non-scaling-stroke"  x="-200" y="-100" rx="0" ry="0" width="400" height="200" />
</g>
<g transform="matrix(Infinity NaN NaN Infinity 0 0)" id="8a479a4d-4bad-4f35-84cf-3e5fb366d8b7"  >
</g>
<g transform="matrix(1.46 0 0 1.46 200 100)"  >
<g style="" vector-effect="non-scaling-stroke"   >
		<g transform="matrix(0.1 0 0 0.1 0 0)"  >
<path style="stroke: none; stroke-width: 1; stroke-dasharray: none; stroke-linecap: butt; stroke-dashoffset: 0; stroke-linejoin: miter; stroke-miterlimit: 4; fill: rgb(153,209,239); fill-rule: nonzero; opacity: 1;" vector-effect="non-scaling-stroke"  transform=" translate(-1500, -2232.12)" d="M 2837.339844 2232.121094 C 2837.339844 2369.820312 2789.28125 2496.210938 2709.03125 2595.359375 C 2696.128906 2611.261719 2682.390625 2626.558594 2667.960938 2641.019531 C 2651.699219 2657.28125 2634.359375 2672.699219 2616.269531 2686.921875 C 2613.03125 2689.441406 2609.878906 2691.988281 2606.640625 2694.269531 C 2527.589844 2753.910156 2432.789062 2793.660156 2329.53125 2806.078125 C 2306.398438 2808.960938 2282.910156 2810.429688 2259.058594 2810.429688 L 740.96875 2810.429688 C 562.171875 2810.429688 402.300781 2729.21875 296.28125 2601.75 C 280.621094 2582.941406 266.039062 2563.199219 252.898438 2542.351562 C 195.660156 2452.828125 162.660156 2346.328125 162.660156 2232.121094 C 162.660156 1912.738281 421.558594 1653.808594 740.96875 1653.808594 L 2259.03125 1653.808594 C 2495.28125 1653.808594 2698.410156 1795.5 2788.171875 1998.511719 C 2819.730469 2069.96875 2837.339844 2148.988281 2837.339844 2232.121094" stroke-linecap="round" />
</g>
		<g transform="matrix(0.1 0 0 0.1 -2.6 10.01)"  >
<path style="stroke: none; stroke-width: 1; stroke-dasharray: none; stroke-linecap: butt; stroke-dashoffset: 0; stroke-linejoin: miter; stroke-miterlimit: 4; fill: rgb(79,124,165); fill-rule: nonzero; opacity: 1;" vector-effect="non-scaling-stroke"  transform=" translate(-1474.04, -2332.19)" d="M 567.871094 1853.941406 L 567.871094 1967.070312 L 296.28125 1967.070312 L 296.28125 2601.75 C 399.78125 2729.21875 555.871094 2810.429688 730.441406 2810.429688 L 838.410156 2810.429688 L 838.410156 1853.941406 Z M 1161.871094 2033.339844 L 1161.871094 2081.519531 L 1008.960938 2081.519531 L 1008.960938 2810.429688 L 1432.410156 2810.429688 L 1432.410156 2033.339844 Z M 1814.671875 2033.339844 L 1814.671875 1885.738281 L 1544.128906 1885.738281 L 1544.128906 2686.949219 L 1804.441406 2686.949219 L 1804.441406 2810.429688 L 2074.980469 2810.429688 L 2074.980469 2033.339844 Z M 2381.25 1885.738281 L 2381.25 2177.910156 L 2281.261719 2177.910156 L 2281.261719 2806.078125 C 2382.058594 2793.660156 2474.640625 2753.910156 2551.800781 2694.269531 L 2551.800781 2686.921875 L 2561.21875 2686.921875 C 2578.859375 2672.699219 2595.808594 2657.28125 2611.679688 2641.019531 C 2625.78125 2626.558594 2639.191406 2611.261719 2651.789062 2595.359375 L 2651.789062 1885.738281 L 2381.25 1885.738281" stroke-linecap="round" />
</g>
		<g transform="matrix(0.1 0 0 0.1 2.95 10.01)"  >
<path style="stroke: none; stroke-width: 1; stroke-dasharray: none; stroke-linecap: butt; stroke-dashoffset: 0; stroke-linejoin: miter; stroke-miterlimit: 4; fill: rgb(48,84,114); fill-rule: nonzero; opacity: 1;" vector-effect="non-scaling-stroke"  transform=" translate(-1529.46, -2332.19)" d="M 2837.339844 2232.121094 C 2837.339844 2369.820312 2789.28125 2496.210938 2709.03125 2595.359375 C 2696.128906 2611.261719 2682.390625 2626.558594 2667.960938 2641.019531 C 2651.699219 2657.28125 2634.359375 2672.699219 2616.269531 2686.921875 C 2613.03125 2689.441406 2609.878906 2691.988281 2606.640625 2694.269531 C 2527.589844 2753.910156 2432.789062 2793.660156 2329.53125 2806.078125 C 2306.398438 2808.960938 2282.910156 2810.429688 2259.058594 2810.429688 L 740.96875 2810.429688 C 562.171875 2810.429688 402.300781 2729.21875 296.28125 2601.75 C 280.621094 2582.941406 266.039062 2563.199219 252.898438 2542.351562 L 255.179688 2542.351562 L 255.179688 2458.019531 L 221.578125 2458.019531 L 221.578125 2385.71875 L 255.179688 2385.71875 L 255.179688 2356.679688 L 221.578125 2356.679688 L 221.578125 2284.378906 L 255.179688 2284.378906 L 255.179688 2255.21875 L 221.578125 2255.21875 L 221.578125 2182.921875 L 574.46875 2182.921875 L 574.46875 2385.691406 L 640.738281 2385.691406 L 640.738281 2034.660156 L 619.171875 2034.660156 L 619.171875 1962.359375 L 1016.761719 1962.359375 L 1016.761719 2034.660156 L 996.148438 2034.660156 L 996.148438 2315.488281 L 1085.550781 2315.488281 L 1085.550781 2248.261719 L 1338.570312 2248.261719 L 1338.570312 2320.558594 L 1338.449219 2320.558594 C 1338.449219 2320.800781 1338.570312 2320.921875 1338.570312 2321.28125 L 1338.570312 2576.578125 L 1401.328125 2576.578125 L 1401.328125 2009.96875 L 1714.589844 2009.96875 L 1714.589844 2101.648438 L 1895.671875 2101.648438 C 1898.789062 2101.648438 1901.339844 2104.171875 1901.339844 2107.441406 L 1901.339844 2385.75 L 1967.609375 2385.75 C 1967.609375 2385.75 1976.070312 1915.621094 1979.429688 1915.621094 L 2028.839844 1879.46875 L 2028.839844 1853.941406 L 2342.101562 1853.941406 L 2342.101562 1879.46875 L 2383.679688 1879.46875 C 2386.800781 1879.46875 2389.351562 1881.988281 2389.351562 1885.261719 L 2389.351562 2496.328125 L 2468.128906 2496.328125 L 2468.128906 2004.300781 C 2468.128906 2001.179688 2470.648438 1998.511719 2473.921875 1998.511719 L 2788.261719 1998.511719 C 2819.730469 2069.96875 2837.339844 2148.988281 2837.339844 2232.121094" stroke-linecap="round" />
</g>
		<g transform="matrix(0.1 0 0 0.1 -80.11 1.06)"  >
<path style="stroke: none; stroke-width: 1; stroke-dasharray: none; stroke-linecap: butt; stroke-dashoffset: 0; stroke-linejoin: miter; stroke-miterlimit: 4; fill: rgb(239,206,104); fill-rule: nonzero; opacity: 1;" vector-effect="non-scaling-stroke"  transform=" translate(-698.91, -2242.68)" d="M 698.910156 1773.511719 C 439.800781 1773.511719 229.738281 1983.570312 229.738281 2242.679688 C 229.738281 2501.789062 439.800781 2711.851562 698.910156 2711.851562 C 958.019531 2711.851562 1168.078125 2501.789062 1168.078125 2242.679688 C 1168.078125 1983.570312 958.050781 1773.511719 698.910156 1773.511719" stroke-linecap="round" />
</g>
		<g transform="matrix(0.1 0 0 0.1 52.63 -6.96)"  >
<path style="stroke: none; stroke-width: 1; stroke-dasharray: none; stroke-linecap: butt; stroke-dashoffset: 0; stroke-linejoin: miter; stroke-miterlimit: 4; fill: rgb(79,124,165); fill-rule: nonzero; opacity: 1;" vector-effect="non-scaling-stroke"  transform=" translate(-2026.26, -2162.52)" d="M 2068.441406 2033.339844 L 2014.199219 2033.339844 L 2014.199219 1979.128906 L 2068.410156 1979.128906 L 2068.410156 2033.339844 Z M 2068.441406 2114.671875 L 2014.199219 2114.671875 L 2014.199219 2060.460938 L 2068.410156 2060.460938 L 2068.410156 2114.671875 Z M 2373 2189.96875 L 2318.789062 2189.96875 L 2318.789062 2135.761719 L 2373 2135.761719 Z M 2546.371094 2087.550781 L 2492.160156 2087.550781 L 2492.160156 2033.339844 L 2546.371094 2033.339844 Z M 2809.378906 2217.058594 L 2755.171875 2217.058594 L 2755.171875 2162.851562 L 2809.378906 2162.851562 Z M 2736.121094 2217.058594 L 2681.910156 2217.058594 L 2681.910156 2162.851562 L 2736.121094 2162.851562 Z M 2651.789062 2296.890625 L 2597.578125 2296.890625 L 2597.578125 2242.679688 L 2651.789062 2242.679688 Z M 2300.339844 2033.339844 L 2246.128906 2033.339844 L 2246.128906 1979.128906 L 2300.339844 1979.128906 Z M 1873.441406 2189.96875 L 1819.199219 2189.96875 L 1819.199219 2135.761719 L 1873.410156 2135.761719 L 1873.410156 2189.96875 Z M 1795.109375 2269.769531 L 1740.898438 2269.769531 L 1740.898438 2215.558594 L 1795.109375 2215.558594 Z M 1297.351562 2345.910156 L 1243.140625 2345.910156 L 1243.140625 2291.699219 L 1297.351562 2291.699219 Z M 1673.851562 2087.550781 L 1619.640625 2087.550781 L 1619.640625 2033.339844 L 1673.851562 2033.339844 L 1673.851562 2087.550781" stroke-linecap="round" />
</g>
		<g transform="matrix(0.1 0 0 0.1 11.84 -46.24)"  >
<path style="stroke: none; stroke-width: 1; stroke-dasharray: none; stroke-linecap: butt; stroke-dashoffset: 0; stroke-linejoin: miter; stroke-miterlimit: 4; fill: rgb(239,239,239); fill-rule: nonzero; opacity: 1;" vector-effect="non-scaling-stroke"  transform=" translate(-1618.39, -1769.71)" d="M 1101.210938 1821.148438 C 1100.160156 1791.328125 1137.660156 1767.929688 1164 1781.96875 C 1162.5 1744.46875 1197.390625 1709.578125 1234.921875 1711.078125 C 1272.421875 1712.578125 1304.429688 1750.109375 1299.988281 1787.371094 C 1303.859375 1765.050781 1331.339844 1750.410156 1352.039062 1759.648438 C 1372.710938 1768.890625 1380.148438 1799.128906 1366.109375 1816.921875 C 1380.570312 1803.511719 1403.878906 1800.78125 1421.070312 1810.441406 C 1438.261719 1820.101562 1448.011719 1841.429688 1444.050781 1860.75 C 1445.761719 1867.648438 1041.871094 1867.648438 1041.871094 1867.648438 C 1037.039062 1838.671875 1072.050781 1811.101562 1101.210938 1821.148438 Z M 2150.371094 1754.429688 C 2151.148438 1732.050781 2123.011719 1714.46875 2103.238281 1725.03125 C 2104.351562 1696.859375 2078.160156 1670.699219 2050.019531 1671.808594 C 2021.851562 1672.921875 1997.820312 1701.121094 2001.179688 1729.078125 C 1998.269531 1712.308594 1977.628906 1701.328125 1962.121094 1708.261719 C 1946.578125 1715.191406 1941 1737.898438 1951.558594 1751.25 C 1950.78125 1750.53125 1949.910156 1749.960938 1949.070312 1749.300781 C 1941.960938 1728.328125 1921.019531 1711.828125 1898.578125 1712.699219 C 1870.410156 1713.808594 1846.378906 1742.011719 1849.738281 1769.96875 C 1846.828125 1753.199219 1826.191406 1742.21875 1810.679688 1749.148438 C 1795.140625 1756.078125 1789.558594 1778.789062 1800.121094 1792.140625 C 1789.261719 1782.089844 1771.769531 1780.019531 1758.871094 1787.28125 C 1745.96875 1794.539062 1738.648438 1810.558594 1741.621094 1825.050781 C 1740.328125 1830.238281 2043.570312 1830.238281 2043.570312 1830.238281 C 2047.171875 1808.460938 2020.890625 1787.761719 1998.988281 1795.320312 C 1999.078125 1792.859375 1998.691406 1790.488281 1998.121094 1788.179688 C 2085.300781 1789.320312 2195.039062 1789.320312 2195.039062 1789.320312 C 2198.550781 1767.601562 2172.269531 1746.898438 2150.371094 1754.429688" stroke-linecap="round" />
</g>
</g>
</g>
</svg>